<svg id="svg" version="1.1" width="61" height="69" viewBox="0 0 400 472.9064039408867" xmlns="http://www.w3.org/2000/svg" xmlns:xlink="http://www.w3.org/1999/xlink" ><g id="svgg"><path id="path0" d="M164.769 69.700 C 164.407 70.883,163.602 89.468,163.601 96.657 L 163.600 101.114 170.500 101.400 C 179.991 101.793,179.400 101.965,179.400 98.800 L 179.400 96.200 174.839 96.000 C 169.306 95.757,169.726 96.519,170.055 87.321 C 170.194 83.404,170.329 77.815,170.355 74.900 L 170.400 69.600 167.600 69.600 C 166.060 69.600,164.786 69.645,164.769 69.700 M199.336 73.288 C 198.603 74.098,191.065 85.423,185.817 93.600 C 184.758 95.250,183.359 97.372,182.709 98.316 C 181.193 100.517,181.383 100.898,184.320 101.550 C 187.222 102.193,187.209 102.200,189.250 98.968 C 191.146 95.966,190.709 96.042,197.600 97.526 L 202.600 98.603 203.117 101.802 C 203.710 105.466,203.922 105.704,207.212 106.403 C 210.497 107.100,210.448 108.366,207.785 91.600 C 207.243 88.190,206.522 83.600,206.183 81.400 C 205.843 79.200,205.385 76.474,205.163 75.342 L 204.761 73.285 202.929 73.010 C 201.922 72.859,200.887 72.655,200.630 72.556 C 200.372 72.457,199.790 72.787,199.336 73.288 M221.613 80.100 C 221.185 81.035,220.269 83.420,219.576 85.400 C 218.883 87.380,216.805 93.065,214.958 98.033 C 213.111 103.001,211.600 107.330,211.600 107.653 C 211.600 108.435,222.048 112.000,224.342 112.000 C 230.899 112.000,235.478 104.362,232.305 98.717 L 231.444 97.185 232.422 96.502 C 238.011 92.600,237.554 84.879,231.550 81.774 C 230.548 81.256,222.928 78.400,222.547 78.400 C 222.460 78.400,222.040 79.165,221.613 80.100 M200.760 84.900 C 200.989 86.055,201.295 88.125,201.440 89.500 L 201.703 92.000 200.352 91.992 C 198.578 91.982,195.089 91.068,194.923 90.570 C 194.803 90.210,197.997 84.850,199.184 83.419 C 200.024 82.408,200.321 82.687,200.760 84.900 M229.169 87.036 C 232.171 89.561,229.609 93.880,225.628 93.006 C 223.602 92.561,223.468 92.001,224.637 88.848 C 225.859 85.552,226.908 85.133,229.169 87.036 M249.600 94.959 C 238.262 98.348,233.937 112.394,241.459 121.393 C 249.173 130.622,263.631 128.469,268.919 117.303 C 274.670 105.164,262.509 91.099,249.600 94.959 M224.846 98.424 C 228.875 100.479,228.009 106.000,223.659 106.000 C 219.216 106.000,218.647 105.164,220.228 100.964 C 221.713 97.019,221.896 96.918,224.846 98.424 M257.290 101.218 C 265.626 103.533,266.256 116.109,258.224 119.850 C 251.305 123.071,244.400 118.494,244.400 110.687 C 244.400 103.733,250.420 99.310,257.290 101.218 M272.931 125.291 C 266.919 131.280,262.000 136.312,262.000 136.472 C 262.000 136.898,265.624 140.400,266.065 140.400 C 266.272 140.400,268.435 138.420,270.871 136.000 C 276.950 129.963,276.792 129.783,273.996 139.593 L 272.003 146.586 274.947 149.593 C 276.567 151.247,278.464 153.455,279.165 154.500 C 280.601 156.642,281.030 156.747,284.595 155.818 C 287.561 155.045,287.656 155.105,290.562 159.552 C 294.127 165.007,294.074 164.880,293.277 166.076 C 292.905 166.635,292.105 167.833,291.500 168.738 C 290.100 170.834,290.095 170.795,292.028 173.641 L 293.655 176.038 294.470 175.002 C 295.395 173.826,297.588 170.729,301.411 165.200 C 302.856 163.110,304.943 160.140,306.048 158.600 C 313.327 148.459,313.330 148.452,311.597 146.060 C 310.067 143.948,311.391 143.820,293.600 147.800 C 285.241 149.670,278.222 151.200,278.001 151.200 C 277.408 151.200,277.513 149.801,278.392 146.000 C 278.824 144.130,279.394 141.647,279.657 140.481 C 280.237 137.922,280.336 137.847,282.145 138.603 C 289.831 141.814,297.842 133.084,294.260 125.400 C 293.347 123.444,285.125 114.400,284.259 114.400 C 284.040 114.400,278.943 119.301,272.931 125.291 M287.119 124.158 C 290.591 127.925,289.680 132.563,285.296 133.432 C 283.609 133.767,279.972 132.046,278.756 130.338 L 277.892 129.125 281.237 125.763 C 285.135 121.844,285.016 121.877,287.119 124.158 M158.880 128.480 C 156.998 130.362,158.802 134.000,161.617 134.000 C 162.695 134.000,162.690 133.891,162.485 153.368 L 162.292 171.735 160.799 173.368 C 159.204 175.113,158.272 176.732,157.850 178.494 C 157.666 179.260,157.260 179.660,156.494 179.829 C 155.892 179.962,154.569 180.331,153.554 180.650 L 151.708 181.229 151.428 184.314 C 150.903 190.113,150.149 190.995,144.000 192.999 C 142.130 193.609,139.239 194.802,137.577 195.650 L 134.553 197.193 126.255 197.461 C 115.333 197.813,115.509 197.581,115.543 211.545 C 115.577 225.846,114.812 230.094,111.209 235.592 C 110.126 237.247,108.408 240.400,107.393 242.600 C 106.378 244.800,105.123 247.500,104.605 248.600 C 102.938 252.137,98.482 262.942,96.669 267.842 C 88.100 291.006,88.734 307.999,98.600 319.556 L 100.400 321.665 100.400 337.270 L 100.400 352.874 98.100 357.301 C 96.821 359.762,94.907 362.719,93.787 363.963 C 88.770 369.537,85.835 373.473,78.056 385.061 L 71.570 394.721 71.685 398.661 L 71.800 402.600 143.100 402.701 C 213.098 402.800,214.400 402.788,214.400 402.037 C 214.400 399.971,211.111 393.408,207.740 388.746 L 206.400 386.893 206.399 379.746 C 206.396 367.983,208.985 368.991,179.200 369.151 C 154.736 369.282,153.205 369.222,151.718 368.073 C 150.862 367.412,150.088 344.178,150.896 343.371 C 151.028 343.239,163.165 342.921,177.868 342.665 L 204.600 342.200 205.117 340.200 C 205.647 338.152,205.516 335.150,204.736 331.488 L 204.328 329.575 177.910 329.614 C 160.439 329.639,151.354 329.514,151.084 329.244 C 150.595 328.755,150.448 315.635,150.924 314.900 C 151.178 314.506,158.584 314.400,185.735 314.400 C 224.055 314.400,222.182 314.531,221.922 311.862 L 221.800 310.600 204.200 310.302 C 194.520 310.139,175.075 310.049,160.990 310.102 L 135.380 310.200 134.250 311.089 C 130.538 314.010,122.634 305.838,120.042 296.400 C 117.934 288.721,116.578 268.708,118.100 267.724 C 118.375 267.546,124.330 267.310,131.333 267.200 C 145.863 266.972,145.195 267.154,145.206 263.424 C 145.215 260.498,145.158 260.528,151.400 260.209 L 157.000 259.923 158.600 261.196 C 159.480 261.897,160.245 262.513,160.299 262.567 C 160.354 262.621,160.579 264.990,160.800 267.833 C 162.408 288.541,167.047 302.047,172.531 301.986 C 175.561 301.952,179.167 298.483,179.787 295.004 C 180.309 292.083,182.852 284.210,183.509 283.481 C 187.026 279.584,193.306 280.885,199.633 286.823 L 203.000 289.983 205.713 289.992 C 214.829 290.020,215.359 285.829,208.114 271.000 C 206.502 267.700,205.074 264.325,204.940 263.500 C 204.612 261.468,204.124 261.448,198.495 263.228 C 194.307 264.553,191.817 264.743,191.443 263.767 C 191.309 263.419,191.200 243.655,191.200 219.847 L 191.200 176.559 189.370 174.780 C 186.232 171.729,186.336 172.548,186.644 153.278 C 186.951 134.007,186.805 135.115,189.207 133.904 C 191.060 132.970,191.603 131.069,190.694 128.700 C 190.353 127.811,159.760 127.600,158.880 128.480 M303.600 151.816 C 303.600 152.331,298.334 159.600,297.961 159.600 C 297.289 159.600,293.763 154.104,294.172 153.695 C 294.895 152.971,303.600 151.236,303.600 151.816 M318.212 162.024 C 315.958 163.148,315.958 163.149,317.046 165.800 C 318.268 168.779,318.519 168.525,310.945 171.998 C 301.504 176.328,294.800 179.555,294.800 179.771 C 294.800 180.320,296.765 184.331,297.151 184.570 C 297.603 184.849,297.917 184.729,303.400 182.187 C 305.160 181.371,307.502 180.296,308.605 179.799 C 309.708 179.301,312.575 177.965,314.976 176.830 C 320.765 174.092,320.735 174.092,322.200 176.899 C 323.574 179.530,323.420 179.472,326.026 178.351 C 328.556 177.262,328.548 177.107,325.636 171.011 C 324.336 168.289,322.782 164.968,322.182 163.631 C 320.972 160.936,320.653 160.807,318.212 162.024 M317.637 188.039 C 304.640 190.278,299.419 206.242,308.668 215.461 C 316.856 223.620,330.124 221.371,335.252 210.955 C 340.959 199.363,330.546 185.815,317.637 188.039 M324.031 194.857 C 330.374 196.757,332.575 205.837,327.880 210.735 C 322.783 216.052,312.851 214.309,310.892 207.754 C 308.405 199.432,315.630 192.340,324.031 194.857 M331.800 225.399 C 329.380 225.672,323.530 226.289,318.800 226.770 C 307.397 227.929,308.400 227.619,308.400 229.982 C 308.400 233.356,308.911 234.148,310.910 233.875 C 311.840 233.749,317.291 233.175,323.024 232.601 C 328.757 232.027,334.967 231.342,336.824 231.079 L 340.200 230.600 340.163 229.200 C 340.036 224.361,340.230 224.449,331.800 225.399 M309.666 239.720 C 309.343 240.110,309.203 241.245,309.280 242.865 L 309.400 245.400 315.000 245.696 C 324.293 246.188,324.289 246.008,315.117 250.563 L 308.600 253.800 308.483 257.132 C 308.345 261.095,308.202 261.071,313.512 257.948 C 315.334 256.877,316.954 255.996,317.112 255.991 C 317.271 255.986,317.850 255.630,318.400 255.200 C 319.646 254.226,321.200 254.147,321.200 255.058 C 321.200 258.549,327.409 262.396,332.052 261.783 C 337.916 261.008,340.430 256.728,340.531 247.350 L 340.600 241.000 335.800 240.734 C 333.160 240.588,327.220 240.264,322.600 240.015 C 317.980 239.766,313.294 239.461,312.186 239.336 C 310.662 239.165,310.049 239.259,309.666 239.720 M335.116 247.100 C 335.879 247.393,335.567 251.305,334.623 253.295 C 333.393 255.887,329.277 256.538,327.207 254.468 C 325.589 252.850,324.465 247.687,325.500 246.626 C 325.814 246.303,334.106 246.712,335.116 247.100 M307.069 265.100 C 306.821 265.517,304.061 278.730,303.917 280.187 C 303.807 281.306,303.919 281.407,305.877 281.939 C 308.841 282.744,308.913 282.665,309.974 277.446 C 311.129 271.755,311.056 271.825,315.044 272.637 C 319.144 273.471,318.985 273.113,317.781 278.815 C 316.585 284.479,316.591 284.498,319.874 284.990 C 322.139 285.330,322.049 285.470,323.165 279.881 C 324.248 274.459,324.102 274.626,327.250 275.227 C 331.693 276.076,331.682 276.055,330.413 281.329 C 329.046 287.010,329.017 286.878,331.765 287.497 C 333.065 287.791,334.263 287.889,334.426 287.715 C 334.690 287.434,338.000 272.601,338.000 271.698 C 338.000 271.497,336.245 270.953,334.100 270.490 C 316.635 266.716,307.625 264.802,307.324 264.800 C 307.282 264.800,307.167 264.935,307.069 265.100 " stroke="none" fill="#d5281f" fill-rule="evenodd"></path><path id="path1" d="M111.400 1.589 C 102.289 3.887,96.101 10.222,94.210 19.187 C 93.142 24.247,93.873 31.096,95.815 34.231 C 99.663 40.444,101.513 42.246,106.896 45.031 L 110.600 46.947 116.000 47.117 L 121.400 47.288 125.078 45.811 C 137.987 40.627,143.572 26.331,137.590 13.783 C 134.359 7.005,127.887 2.329,120.200 1.220 C 116.449 0.679,114.724 0.751,111.400 1.589 M59.400 43.467 C 31.088 46.927,17.759 78.927,35.471 100.914 C 51.756 121.130,84.250 117.048,95.034 93.432 C 100.733 80.952,98.585 66.459,89.354 55.108 C 83.141 47.470,69.625 42.217,59.400 43.467 M110.200 123.088 C 107.451 123.285,100.575 124.626,98.450 125.380 C 97.487 125.721,96.324 126.000,95.865 126.000 C 95.406 126.000,93.583 126.709,91.815 127.576 C 90.047 128.443,87.610 129.607,86.400 130.162 C 75.826 135.012,64.416 146.522,58.605 158.200 C 55.460 164.521,54.515 167.327,52.372 176.715 C 48.103 195.420,56.873 221.708,71.682 234.600 C 72.946 235.700,74.659 237.241,75.490 238.025 C 80.766 243.003,93.941 249.358,102.200 250.910 C 103.545 251.162,103.093 251.877,107.205 243.000 C 108.326 240.580,110.129 237.247,111.211 235.592 C 114.812 230.090,115.577 225.842,115.543 211.545 C 115.509 197.581,115.333 197.813,126.255 197.461 L 134.553 197.193 137.577 195.650 C 139.239 194.802,142.130 193.609,144.000 192.999 C 150.149 190.995,150.903 190.113,151.428 184.314 L 151.708 181.229 153.554 180.650 C 154.569 180.331,155.892 179.962,156.494 179.829 C 157.260 179.660,157.666 179.260,157.850 178.494 C 158.276 176.717,159.207 175.109,160.854 173.309 L 162.400 171.618 162.400 157.042 C 162.400 149.025,162.460 142.226,162.534 141.933 C 162.608 141.640,162.587 141.554,162.487 141.742 C 162.387 141.930,161.112 140.915,159.653 139.487 C 156.142 136.049,150.540 132.310,144.400 129.309 C 134.007 124.227,122.779 122.185,110.200 123.088 M348.600 310.279 C 345.346 310.712,339.429 313.225,338.771 314.454 C 338.551 314.864,338.120 315.200,337.813 315.200 C 336.291 315.200,332.603 321.382,331.774 325.323 C 329.177 337.667,334.751 346.604,347.400 350.376 C 362.927 355.007,368.880 363.883,364.239 375.486 C 358.581 389.632,336.001 384.934,335.607 369.529 C 335.574 368.234,331.197 367.381,329.642 368.366 C 327.390 369.792,331.044 379.920,335.839 385.540 C 340.784 391.337,352.066 392.818,360.520 388.779 C 375.316 381.712,376.903 355.432,362.925 348.955 C 362.086 348.566,360.971 347.976,360.446 347.643 C 359.922 347.310,357.762 346.459,355.646 345.751 C 340.163 340.570,337.658 338.279,338.089 329.702 C 338.323 325.060,338.925 323.453,341.337 321.041 C 348.921 313.458,362.384 316.665,363.840 326.400 C 364.308 329.532,364.556 329.873,366.591 330.178 C 370.951 330.832,371.619 329.697,369.991 324.400 C 366.873 314.259,358.792 308.924,348.600 310.279 M223.853 312.496 C 223.279 314.640,223.579 388.685,224.164 389.170 C 224.509 389.456,225.791 389.592,227.464 389.519 L 230.200 389.400 230.304 372.016 C 230.362 362.454,230.560 354.480,230.744 354.296 C 230.929 354.111,237.858 353.951,246.141 353.940 C 254.425 353.929,261.300 353.762,261.420 353.568 C 261.897 352.795,261.656 347.482,261.128 347.147 C 260.838 346.963,253.914 346.809,245.743 346.806 C 232.568 346.801,230.858 346.728,230.643 346.167 C 229.912 344.262,230.398 319.229,231.174 318.814 C 231.667 318.550,237.310 318.400,246.747 318.400 C 263.662 318.400,262.130 318.810,261.671 314.400 L 261.400 311.800 242.748 311.696 L 224.095 311.592 223.853 312.496 M277.977 312.443 C 277.441 313.445,277.200 387.238,277.729 388.700 L 278.054 389.600 297.594 389.600 C 312.858 389.600,317.175 389.491,317.322 389.100 C 317.649 388.236,317.099 383.414,316.639 383.106 C 316.398 382.944,309.247 382.809,300.749 382.806 C 288.517 382.801,285.208 382.691,284.864 382.277 C 284.418 381.740,283.955 359.092,284.320 355.704 L 284.503 354.009 300.726 353.904 L 316.949 353.800 317.298 352.454 C 317.490 351.714,317.499 350.184,317.320 349.054 L 316.993 347.000 300.814 346.800 L 284.636 346.600 284.388 345.600 C 283.782 343.147,284.409 319.420,285.094 318.900 C 285.595 318.520,289.478 318.400,301.289 318.400 C 318.895 318.400,317.284 318.766,317.357 314.750 C 317.388 313.037,317.232 312.267,316.800 311.993 C 315.372 311.087,278.474 311.515,277.977 312.443 " stroke="none" fill="#a6d230" fill-rule="evenodd" ></path></g></svg>